{
    "asset" : {
        "generator" : "Khronos glTF Blender I/O v3.2.43",
        "version" : "2.0"
    },
    "extensionsUsed" : [
        "KHR_materials_unlit"
    ],
    "scene" : 0,
    "scenes" : [
        {
            "name" : "Scene",
            "nodes" : [
                0,
                1,
                2,
                3,
                4,
                5
            ]
        }
    ],
    "nodes" : [
        {
            "mesh" : 0,
            "name" : "body"
        },
        {
            "mesh" : 1,
            "name" : "front-left-wheel",
            "rotation" : [
                0,
                0,
                -0.7071068286895752,
                0.7071068286895752
            ],
            "translation" : [
                0.7770601511001587,
                -0.37749409675598145,
                1.209999918937683
            ]
        },
        {
            "mesh" : 2,
            "name" : "rear-left-wheel",
            "rotation" : [
                0,
                0,
                -0.7071068286895752,
                0.7071068286895752
            ],
            "translation" : [
                0.7770601511001587,
                -0.37749409675598145,
                -1.1782974004745483
            ]
        },
        {
            "mesh" : 3,
            "name" : "rear-right-wheel",
            "rotation" : [
                0,
                0,
                -0.7071068286895752,
                0.7071068286895752
            ],
            "translation" : [
                -0.7770597338676453,
                -0.37749409675598145,
                -1.1782972812652588
            ]
        },
        {
            "mesh" : 4,
            "name" : "front-right-wheel",
            "rotation" : [
                0,
                0,
                -0.7071068286895752,
                0.7071068286895752
            ],
            "translation" : [
                -0.7770597338676453,
                -0.37749409675598145,
                1.209999918937683
            ]
        },
        {
            "mesh" : 5,
            "name" : "headlights",
            "scale" : [
                0.8496299982070923,
                0.6172199845314026,
                2.0853400230407715
            ]
        }
    ],
    "materials" : [
        {
            "doubleSided" : true,
            "name" : "sw20",
            "pbrMetallicRoughness" : {
                "baseColorTexture" : {
                    "index" : 0
                },
                "metallicFactor" : 0.25682052969932556,
                "roughnessFactor" : 0
            }
        },
        {
            "extensions" : {
                "KHR_materials_unlit" : {}
            },
            "name" : "OH_Outline_Material",
            "pbrMetallicRoughness" : {
                "baseColorFactor" : [
                    0,
                    0,
                    0,
                    1
                ],
                "metallicFactor" : 0,
                "roughnessFactor" : 0.9
            }
        }
    ],
    "meshes" : [
        {
            "name" : "Cube",
            "primitives" : [
                {
                    "attributes" : {
                        "POSITION" : 0,
                        "NORMAL" : 1,
                        "TEXCOORD_0" : 2
                    },
                    "indices" : 3,
                    "material" : 0
                },
                {
                    "attributes" : {
                        "POSITION" : 4,
                        "NORMAL" : 5,
                        "TEXCOORD_0" : 6
                    },
                    "indices" : 7,
                    "material" : 1
                }
            ]
        },
        {
            "name" : "Cylinder",
            "primitives" : [
                {
                    "attributes" : {
                        "POSITION" : 8,
                        "NORMAL" : 9,
                        "TEXCOORD_0" : 10
                    },
                    "indices" : 11,
                    "material" : 0
                },
                {
                    "attributes" : {
                        "POSITION" : 12,
                        "NORMAL" : 13,
                        "TEXCOORD_0" : 14
                    },
                    "indices" : 15,
                    "material" : 1
                }
            ]
        },
        {
            "name" : "Cylinder.004",
            "primitives" : [
                {
                    "attributes" : {
                        "POSITION" : 16,
                        "NORMAL" : 17,
                        "TEXCOORD_0" : 18
                    },
                    "indices" : 11,
                    "material" : 0
                },
                {
                    "attributes" : {
                        "POSITION" : 19,
                        "NORMAL" : 20,
                        "TEXCOORD_0" : 21
                    },
                    "indices" : 15,
                    "material" : 1
                }
            ]
        },
        {
            "name" : "Cylinder.005",
            "primitives" : [
                {
                    "attributes" : {
                        "POSITION" : 22,
                        "NORMAL" : 23,
                        "TEXCOORD_0" : 24
                    },
                    "indices" : 25,
                    "material" : 0
                },
                {
                    "attributes" : {
                        "POSITION" : 26,
                        "NORMAL" : 27,
                        "TEXCOORD_0" : 28
                    },
                    "indices" : 29,
                    "material" : 1
                }
            ]
        },
        {
            "name" : "Cylinder.006",
            "primitives" : [
                {
                    "attributes" : {
                        "POSITION" : 30,
                        "NORMAL" : 31,
                        "TEXCOORD_0" : 32
                    },
                    "indices" : 25,
                    "material" : 0
                },
                {
                    "attributes" : {
                        "POSITION" : 33,
                        "NORMAL" : 34,
                        "TEXCOORD_0" : 35
                    },
                    "indices" : 29,
                    "material" : 1
                }
            ]
        },
        {
            "name" : "Cube.001",
            "primitives" : [
                {
                    "attributes" : {
                        "POSITION" : 36,
                        "NORMAL" : 37,
                        "TEXCOORD_0" : 38
                    },
                    "indices" : 39,
                    "material" : 0
                },
                {
                    "attributes" : {
                        "POSITION" : 40,
                        "NORMAL" : 41,
                        "TEXCOORD_0" : 42
                    },
                    "indices" : 43,
                    "material" : 1
                }
            ]
        }
    ],
    "textures" : [
        {
            "sampler" : 0,
            "source" : 0
        }
    ],
    "images" : [
        {
            "bufferView" : 4,
            "mimeType" : "image/png",
            "name" : "SuperRedII"
        }
    ],
    "accessors" : [
        {
            "bufferView" : 0,
            "componentType" : 5126,
            "count" : 2499,
            "max" : [
                0.9496060013771057,
                0.6212931275367737,
                2.0824618339538574
            ],
            "min" : [
                -0.9496060013771057,
                -0.517320990562439,
                -2.0798232555389404
            ],
            "type" : "VEC3"
        },
        {
            "bufferView" : 1,
            "componentType" : 5126,
            "count" : 2499,
            "type" : "VEC3"
        },
        {
            "bufferView" : 2,
            "componentType" : 5126,
            "count" : 2499,
            "type" : "VEC2"
        },
        {
            "bufferView" : 3,
            "componentType" : 5123,
            "count" : 8658,
            "type" : "SCALAR"
        },
        {
            "bufferView" : 5,
            "componentType" : 5126,
            "count" : 2514,
            "max" : [
                0.9631111025810242,
                0.6372877359390259,
                2.098461627960205
            ],
            "min" : [
                -0.9631111025810242,
                -0.5325270295143127,
                -2.0941247940063477
            ],
            "type" : "VEC3"
        },
        {
            "bufferView" : 6,
            "componentType" : 5126,
            "count" : 2514,
            "type" : "VEC3"
        },
        {
            "bufferView" : 7,
            "componentType" : 5126,
            "count" : 2514,
            "type" : "VEC2"
        },
        {
            "bufferView" : 8,
            "componentType" : 5123,
            "count" : 8661,
            "type" : "SCALAR"
        },
        {
            "bufferView" : 9,
            "componentType" : 5126,
            "count" : 224,
            "max" : [
                0.3278106451034546,
                0.059643685817718506,
                0.3278106451034546
            ],
            "min" : [
                -0.3278106153011322,
                -0.1489679217338562,
                -0.3278106153011322
            ],
            "type" : "VEC3"
        },
        {
            "bufferView" : 10,
            "componentType" : 5126,
            "count" : 224,
            "type" : "VEC3"
        },
        {
            "bufferView" : 11,
            "componentType" : 5126,
            "count" : 224,
            "type" : "VEC2"
        },
        {
            "bufferView" : 12,
            "componentType" : 5123,
            "count" : 756,
            "type" : "SCALAR"
        },
        {
            "bufferView" : 13,
            "componentType" : 5126,
            "count" : 224,
            "max" : [
                0.336840957403183,
                0.06908171623945236,
                0.336840957403183
            ],
            "min" : [
                -0.3368409276008606,
                -0.1583470106124878,
                -0.3368409276008606
            ],
            "type" : "VEC3"
        },
        {
            "bufferView" : 14,
            "componentType" : 5126,
            "count" : 224,
            "type" : "VEC3"
        },
        {
            "bufferView" : 15,
            "componentType" : 5126,
            "count" : 224,
            "type" : "VEC2"
        },
        {
            "bufferView" : 16,
            "componentType" : 5123,
            "count" : 756,
            "type" : "SCALAR"
        },
        {
            "bufferView" : 17,
            "componentType" : 5126,
            "count" : 224,
            "max" : [
                0.3278106451034546,
                0.059643685817718506,
                0.3278106451034546
            ],
            "min" : [
                -0.3278106153011322,
                -0.1489679217338562,
                -0.3278106153011322
            ],
            "type" : "VEC3"
        },
        {
            "bufferView" : 18,
            "componentType" : 5126,
            "count" : 224,
            "type" : "VEC3"
        },
        {
            "bufferView" : 19,
            "componentType" : 5126,
            "count" : 224,
            "type" : "VEC2"
        },
        {
            "bufferView" : 20,
            "componentType" : 5126,
            "count" : 224,
            "max" : [
                0.336840957403183,
                0.06908171623945236,
                0.336840957403183
            ],
            "min" : [
                -0.3368409276008606,
                -0.1583470106124878,
                -0.3368409276008606
            ],
            "type" : "VEC3"
        },
        {
            "bufferView" : 21,
            "componentType" : 5126,
            "count" : 224,
            "type" : "VEC3"
        },
        {
            "bufferView" : 22,
            "componentType" : 5126,
            "count" : 224,
            "type" : "VEC2"
        },
        {
            "bufferView" : 23,
            "componentType" : 5126,
            "count" : 224,
            "max" : [
                0.3278106451034546,
                0.14896756410598755,
                0.3278106153011322
            ],
            "min" : [
                -0.3278106153011322,
                -0.05964404344558716,
                -0.3278105854988098
            ],
            "type" : "VEC3"
        },
        {
            "bufferView" : 24,
            "componentType" : 5126,
            "count" : 224,
            "type" : "VEC3"
        },
        {
            "bufferView" : 25,
            "componentType" : 5126,
            "count" : 224,
            "type" : "VEC2"
        },
        {
            "bufferView" : 26,
            "componentType" : 5123,
            "count" : 756,
            "type" : "SCALAR"
        },
        {
            "bufferView" : 27,
            "componentType" : 5126,
            "count" : 224,
            "max" : [
                0.336840957403183,
                0.15834665298461914,
                0.3368409276008606
            ],
            "min" : [
                -0.3368409276008606,
                -0.06908206641674042,
                -0.3368408977985382
            ],
            "type" : "VEC3"
        },
        {
            "bufferView" : 28,
            "componentType" : 5126,
            "count" : 224,
            "type" : "VEC3"
        },
        {
            "bufferView" : 29,
            "componentType" : 5126,
            "count" : 224,
            "type" : "VEC2"
        },
        {
            "bufferView" : 30,
            "componentType" : 5123,
            "count" : 756,
            "type" : "SCALAR"
        },
        {
            "bufferView" : 31,
            "componentType" : 5126,
            "count" : 224,
            "max" : [
                0.3278106451034546,
                0.14896756410598755,
                0.3278106153011322
            ],
            "min" : [
                -0.3278106153011322,
                -0.05964404344558716,
                -0.3278105854988098
            ],
            "type" : "VEC3"
        },
        {
            "bufferView" : 32,
            "componentType" : 5126,
            "count" : 224,
            "type" : "VEC3"
        },
        {
            "bufferView" : 33,
            "componentType" : 5126,
            "count" : 224,
            "type" : "VEC2"
        },
        {
            "bufferView" : 34,
            "componentType" : 5126,
            "count" : 224,
            "max" : [
                0.336840957403183,
                0.15834665298461914,
                0.3368409276008606
            ],
            "min" : [
                -0.3368409276008606,
                -0.06908206641674042,
                -0.3368408977985382
            ],
            "type" : "VEC3"
        },
        {
            "bufferView" : 35,
            "componentType" : 5126,
            "count" : 224,
            "type" : "VEC3"
        },
        {
            "bufferView" : 36,
            "componentType" : 5126,
            "count" : 224,
            "type" : "VEC2"
        },
        {
            "bufferView" : 37,
            "componentType" : 5126,
            "count" : 144,
            "max" : [
                0.8276467323303223,
                0.25185179710388184,
                0.8898629546165466
            ],
            "min" : [
                -0.8276467323303223,
                -0.11160759627819061,
                0.7406466007232666
            ],
            "type" : "VEC3"
        },
        {
            "bufferView" : 38,
            "componentType" : 5126,
            "count" : 144,
            "type" : "VEC3"
        },
        {
            "bufferView" : 39,
            "componentType" : 5126,
            "count" : 144,
            "type" : "VEC2"
        },
        {
            "bufferView" : 40,
            "componentType" : 5123,
            "count" : 492,
            "type" : "SCALAR"
        },
        {
            "bufferView" : 41,
            "componentType" : 5126,
            "count" : 144,
            "max" : [
                0.8406800031661987,
                0.2672361135482788,
                0.9017850756645203
            ],
            "min" : [
                -0.8406800031661987,
                -0.11160759627819061,
                0.7266111373901367
            ],
            "type" : "VEC3"
        },
        {
            "bufferView" : 42,
            "componentType" : 5126,
            "count" : 144,
            "type" : "VEC3"
        },
        {
            "bufferView" : 43,
            "componentType" : 5126,
            "count" : 144,
            "type" : "VEC2"
        },
        {
            "bufferView" : 44,
            "componentType" : 5123,
            "count" : 492,
            "type" : "SCALAR"
        }
    ],
    "bufferViews" : [
        {
            "buffer" : 0,
            "byteLength" : 29988,
            "byteOffset" : 0
        },
        {
            "buffer" : 0,
            "byteLength" : 29988,
            "byteOffset" : 29988
        },
        {
            "buffer" : 0,
            "byteLength" : 19992,
            "byteOffset" : 59976
        },
        {
            "buffer" : 0,
            "byteLength" : 17316,
            "byteOffset" : 79968
        },
        {
            "buffer" : 0,
            "byteLength" : 175317,
            "byteOffset" : 97284
        },
        {
            "buffer" : 0,
            "byteLength" : 30168,
            "byteOffset" : 272604
        },
        {
            "buffer" : 0,
            "byteLength" : 30168,
            "byteOffset" : 302772
        },
        {
            "buffer" : 0,
            "byteLength" : 20112,
            "byteOffset" : 332940
        },
        {
            "buffer" : 0,
            "byteLength" : 17322,
            "byteOffset" : 353052
        },
        {
            "buffer" : 0,
            "byteLength" : 2688,
            "byteOffset" : 370376
        },
        {
            "buffer" : 0,
            "byteLength" : 2688,
            "byteOffset" : 373064
        },
        {
            "buffer" : 0,
            "byteLength" : 1792,
            "byteOffset" : 375752
        },
        {
            "buffer" : 0,
            "byteLength" : 1512,
            "byteOffset" : 377544
        },
        {
            "buffer" : 0,
            "byteLength" : 2688,
            "byteOffset" : 379056
        },
        {
            "buffer" : 0,
            "byteLength" : 2688,
            "byteOffset" : 381744
        },
        {
            "buffer" : 0,
            "byteLength" : 1792,
            "byteOffset" : 384432
        },
        {
            "buffer" : 0,
            "byteLength" : 1512,
            "byteOffset" : 386224
        },
        {
            "buffer" : 0,
            "byteLength" : 2688,
            "byteOffset" : 387736
        },
        {
            "buffer" : 0,
            "byteLength" : 2688,
            "byteOffset" : 390424
        },
        {
            "buffer" : 0,
            "byteLength" : 1792,
            "byteOffset" : 393112
        },
        {
            "buffer" : 0,
            "byteLength" : 2688,
            "byteOffset" : 394904
        },
        {
            "buffer" : 0,
            "byteLength" : 2688,
            "byteOffset" : 397592
        },
        {
            "buffer" : 0,
            "byteLength" : 1792,
            "byteOffset" : 400280
        },
        {
            "buffer" : 0,
            "byteLength" : 2688,
            "byteOffset" : 402072
        },
        {
            "buffer" : 0,
            "byteLength" : 2688,
            "byteOffset" : 404760
        },
        {
            "buffer" : 0,
            "byteLength" : 1792,
            "byteOffset" : 407448
        },
        {
            "buffer" : 0,
            "byteLength" : 1512,
            "byteOffset" : 409240
        },
        {
            "buffer" : 0,
            "byteLength" : 2688,
            "byteOffset" : 410752
        },
        {
            "buffer" : 0,
            "byteLength" : 2688,
            "byteOffset" : 413440
        },
        {
            "buffer" : 0,
            "byteLength" : 1792,
            "byteOffset" : 416128
        },
        {
            "buffer" : 0,
            "byteLength" : 1512,
            "byteOffset" : 417920
        },
        {
            "buffer" : 0,
            "byteLength" : 2688,
            "byteOffset" : 419432
        },
        {
            "buffer" : 0,
            "byteLength" : 2688,
            "byteOffset" : 422120
        },
        {
            "buffer" : 0,
            "byteLength" : 1792,
            "byteOffset" : 424808
        },
        {
            "buffer" : 0,
            "byteLength" : 2688,
            "byteOffset" : 426600
        },
        {
            "buffer" : 0,
            "byteLength" : 2688,
            "byteOffset" : 429288
        },
        {
            "buffer" : 0,
            "byteLength" : 1792,
            "byteOffset" : 431976
        },
        {
            "buffer" : 0,
            "byteLength" : 1728,
            "byteOffset" : 433768
        },
        {
            "buffer" : 0,
            "byteLength" : 1728,
            "byteOffset" : 435496
        },
        {
            "buffer" : 0,
            "byteLength" : 1152,
            "byteOffset" : 437224
        },
        {
            "buffer" : 0,
            "byteLength" : 984,
            "byteOffset" : 438376
        },
        {
            "buffer" : 0,
            "byteLength" : 1728,
            "byteOffset" : 439360
        },
        {
            "buffer" : 0,
            "byteLength" : 1728,
            "byteOffset" : 441088
        },
        {
            "buffer" : 0,
            "byteLength" : 1152,
            "byteOffset" : 442816
        },
        {
            "buffer" : 0,
            "byteLength" : 984,
            "byteOffset" : 443968
        }
    ],
    "samplers" : [
        {
            "magFilter" : 9728,
            "minFilter" : 9984
        }
    ],
    "buffers" : [
        {
            "byteLength" : 444952,
            "uri" : "data:application/octet-stream;base64,"
        }
    ]
}
