{
    "asset" : {
        "generator" : "Khronos glTF Blender I/O v3.2.43",
        "version" : "2.0"
    },
    "extensionsUsed" : [
        "KHR_materials_unlit"
    ],
    "scene" : 0,
    "scenes" : [
        {
            "name" : "Scene",
            "nodes" : [
                0,
                1,
                2,
                3,
                4
            ]
        }
    ],
    "nodes" : [
        {
            "mesh" : 0,
            "name" : "body",
            "rotation" : [
                0.7071068286895752,
                0,
                0,
                0.7071068286895752
            ]
        },
        {
            "mesh" : 1,
            "name" : "front-left-wheel",
            "rotation" : [
                0,
                0,
                -0.7071068286895752,
                0.7071068286895752
            ],
            "translation" : [
                0.787707507610321,
                -0.4130000174045563,
                1.3700001239776611
            ]
        },
        {
            "mesh" : 2,
            "name" : "rear-left-wheel",
            "rotation" : [
                0,
                0,
                -0.7071068286895752,
                0.7071068286895752
            ],
            "translation" : [
                0.787707507610321,
                -0.4130000174045563,
                -1.2972650527954102
            ]
        },
        {
            "mesh" : 3,
            "name" : "front-right-wheel",
            "rotation" : [
                0,
                0,
                -0.7071068286895752,
                0.7071068286895752
            ],
            "translation" : [
                -0.787707507610321,
                -0.4130000174045563,
                1.3700001239776611
            ]
        },
        {
            "mesh" : 4,
            "name" : "rear-right-wheel",
            "rotation" : [
                0,
                0,
                -0.7071068286895752,
                0.7071068286895752
            ],
            "translation" : [
                -0.787707507610321,
                -0.4130000174045563,
                -1.2972650527954102
            ]
        }
    ],
    "materials" : [
        {
            "doubleSided" : true,
            "name" : "cl7",
            "pbrMetallicRoughness" : {
                "baseColorTexture" : {
                    "index" : 0
                },
                "metallicFactor" : 0.25682052969932556,
                "roughnessFactor" : 0
            }
        },
        {
            "extensions" : {
                "KHR_materials_unlit" : {}
            },
            "name" : "OH_Outline_Material",
            "pbrMetallicRoughness" : {
                "baseColorFactor" : [
                    0,
                    0,
                    0,
                    1
                ],
                "metallicFactor" : 0,
                "roughnessFactor" : 0.9
            }
        }
    ],
    "meshes" : [
        {
            "name" : "Plane.001",
            "primitives" : [
                {
                    "attributes" : {
                        "POSITION" : 0,
                        "NORMAL" : 1,
                        "TEXCOORD_0" : 2
                    },
                    "indices" : 3,
                    "material" : 0
                },
                {
                    "attributes" : {
                        "POSITION" : 4,
                        "NORMAL" : 5,
                        "TEXCOORD_0" : 6
                    },
                    "indices" : 7,
                    "material" : 1
                }
            ]
        },
        {
            "name" : "Cylinder",
            "primitives" : [
                {
                    "attributes" : {
                        "POSITION" : 8,
                        "NORMAL" : 9,
                        "TEXCOORD_0" : 10
                    },
                    "indices" : 11,
                    "material" : 0
                },
                {
                    "attributes" : {
                        "POSITION" : 12,
                        "NORMAL" : 13,
                        "TEXCOORD_0" : 14
                    },
                    "indices" : 15,
                    "material" : 1
                }
            ]
        },
        {
            "name" : "Cylinder.003",
            "primitives" : [
                {
                    "attributes" : {
                        "POSITION" : 16,
                        "NORMAL" : 17,
                        "TEXCOORD_0" : 18
                    },
                    "indices" : 11,
                    "material" : 0
                },
                {
                    "attributes" : {
                        "POSITION" : 19,
                        "NORMAL" : 20,
                        "TEXCOORD_0" : 21
                    },
                    "indices" : 15,
                    "material" : 1
                }
            ]
        },
        {
            "name" : "Cylinder.001",
            "primitives" : [
                {
                    "attributes" : {
                        "POSITION" : 22,
                        "NORMAL" : 23,
                        "TEXCOORD_0" : 24
                    },
                    "indices" : 25,
                    "material" : 0
                },
                {
                    "attributes" : {
                        "POSITION" : 26,
                        "NORMAL" : 27,
                        "TEXCOORD_0" : 28
                    },
                    "indices" : 29,
                    "material" : 1
                }
            ]
        },
        {
            "name" : "Cylinder.002",
            "primitives" : [
                {
                    "attributes" : {
                        "POSITION" : 30,
                        "NORMAL" : 31,
                        "TEXCOORD_0" : 32
                    },
                    "indices" : 25,
                    "material" : 0
                },
                {
                    "attributes" : {
                        "POSITION" : 33,
                        "NORMAL" : 34,
                        "TEXCOORD_0" : 35
                    },
                    "indices" : 29,
                    "material" : 1
                }
            ]
        }
    ],
    "textures" : [
        {
            "sampler" : 0,
            "source" : 0
        }
    ],
    "images" : [
        {
            "bufferView" : 4,
            "mimeType" : "image/png",
            "name" : "cl7"
        }
    ],
    "accessors" : [
        {
            "bufferView" : 0,
            "componentType" : 5126,
            "count" : 1834,
            "max" : [
                1.0005218982696533,
                2.3286445140838623,
                0.5934311747550964
            ],
            "min" : [
                -1.0005218982696533,
                -2.3462069034576416,
                -0.7322141528129578
            ],
            "type" : "VEC3"
        },
        {
            "bufferView" : 1,
            "componentType" : 5126,
            "count" : 1834,
            "type" : "VEC3"
        },
        {
            "bufferView" : 2,
            "componentType" : 5126,
            "count" : 1834,
            "type" : "VEC2"
        },
        {
            "bufferView" : 3,
            "componentType" : 5123,
            "count" : 6948,
            "type" : "SCALAR"
        },
        {
            "bufferView" : 5,
            "componentType" : 5126,
            "count" : 1834,
            "max" : [
                1.0135619640350342,
                2.346599578857422,
                0.6134311556816101
            ],
            "min" : [
                -1.0135619640350342,
                -2.3662068843841553,
                -0.7522134780883789
            ],
            "type" : "VEC3"
        },
        {
            "bufferView" : 6,
            "componentType" : 5126,
            "count" : 1834,
            "type" : "VEC3"
        },
        {
            "bufferView" : 7,
            "componentType" : 5126,
            "count" : 1834,
            "type" : "VEC2"
        },
        {
            "bufferView" : 8,
            "componentType" : 5123,
            "count" : 6948,
            "type" : "SCALAR"
        },
        {
            "bufferView" : 9,
            "componentType" : 5126,
            "count" : 208,
            "max" : [
                0.3490000367164612,
                0.0610278844833374,
                0.3490000367164612
            ],
            "min" : [
                -0.3490000367164612,
                -0.1349719762802124,
                -0.3490000367164612
            ],
            "type" : "VEC3"
        },
        {
            "bufferView" : 10,
            "componentType" : 5126,
            "count" : 208,
            "type" : "VEC3"
        },
        {
            "bufferView" : 11,
            "componentType" : 5126,
            "count" : 208,
            "type" : "VEC2"
        },
        {
            "bufferView" : 12,
            "componentType" : 5123,
            "count" : 660,
            "type" : "SCALAR"
        },
        {
            "bufferView" : 13,
            "componentType" : 5126,
            "count" : 208,
            "max" : [
                0.3675729036331177,
                0.07920394092798233,
                0.3675729036331177
            ],
            "min" : [
                -0.3675729036331177,
                -0.15314802527427673,
                -0.3675729036331177
            ],
            "type" : "VEC3"
        },
        {
            "bufferView" : 14,
            "componentType" : 5126,
            "count" : 208,
            "type" : "VEC3"
        },
        {
            "bufferView" : 15,
            "componentType" : 5126,
            "count" : 208,
            "type" : "VEC2"
        },
        {
            "bufferView" : 16,
            "componentType" : 5123,
            "count" : 660,
            "type" : "SCALAR"
        },
        {
            "bufferView" : 17,
            "componentType" : 5126,
            "count" : 208,
            "max" : [
                0.3490000367164612,
                0.0610278844833374,
                0.3490000367164612
            ],
            "min" : [
                -0.3490000367164612,
                -0.1349719762802124,
                -0.3490000367164612
            ],
            "type" : "VEC3"
        },
        {
            "bufferView" : 18,
            "componentType" : 5126,
            "count" : 208,
            "type" : "VEC3"
        },
        {
            "bufferView" : 19,
            "componentType" : 5126,
            "count" : 208,
            "type" : "VEC2"
        },
        {
            "bufferView" : 20,
            "componentType" : 5126,
            "count" : 208,
            "max" : [
                0.3675729036331177,
                0.07920394092798233,
                0.3675729036331177
            ],
            "min" : [
                -0.3675729036331177,
                -0.15314802527427673,
                -0.3675729036331177
            ],
            "type" : "VEC3"
        },
        {
            "bufferView" : 21,
            "componentType" : 5126,
            "count" : 208,
            "type" : "VEC3"
        },
        {
            "bufferView" : 22,
            "componentType" : 5126,
            "count" : 208,
            "type" : "VEC2"
        },
        {
            "bufferView" : 23,
            "componentType" : 5126,
            "count" : 208,
            "max" : [
                0.3490000367164612,
                0.1349719762802124,
                0.3490000367164612
            ],
            "min" : [
                -0.3490000367164612,
                -0.0610278844833374,
                -0.3490000367164612
            ],
            "type" : "VEC3"
        },
        {
            "bufferView" : 24,
            "componentType" : 5126,
            "count" : 208,
            "type" : "VEC3"
        },
        {
            "bufferView" : 25,
            "componentType" : 5126,
            "count" : 208,
            "type" : "VEC2"
        },
        {
            "bufferView" : 26,
            "componentType" : 5123,
            "count" : 660,
            "type" : "SCALAR"
        },
        {
            "bufferView" : 27,
            "componentType" : 5126,
            "count" : 208,
            "max" : [
                0.3675729036331177,
                0.15314802527427673,
                0.3675729036331177
            ],
            "min" : [
                -0.3675729036331177,
                -0.07920394837856293,
                -0.3675729036331177
            ],
            "type" : "VEC3"
        },
        {
            "bufferView" : 28,
            "componentType" : 5126,
            "count" : 208,
            "type" : "VEC3"
        },
        {
            "bufferView" : 29,
            "componentType" : 5126,
            "count" : 208,
            "type" : "VEC2"
        },
        {
            "bufferView" : 30,
            "componentType" : 5123,
            "count" : 660,
            "type" : "SCALAR"
        },
        {
            "bufferView" : 31,
            "componentType" : 5126,
            "count" : 208,
            "max" : [
                0.3490000367164612,
                0.1349719762802124,
                0.3490000367164612
            ],
            "min" : [
                -0.3490000367164612,
                -0.0610278844833374,
                -0.3490000367164612
            ],
            "type" : "VEC3"
        },
        {
            "bufferView" : 32,
            "componentType" : 5126,
            "count" : 208,
            "type" : "VEC3"
        },
        {
            "bufferView" : 33,
            "componentType" : 5126,
            "count" : 208,
            "type" : "VEC2"
        },
        {
            "bufferView" : 34,
            "componentType" : 5126,
            "count" : 208,
            "max" : [
                0.3675729036331177,
                0.15314802527427673,
                0.3675729036331177
            ],
            "min" : [
                -0.3675729036331177,
                -0.07920394837856293,
                -0.3675729036331177
            ],
            "type" : "VEC3"
        },
        {
            "bufferView" : 35,
            "componentType" : 5126,
            "count" : 208,
            "type" : "VEC3"
        },
        {
            "bufferView" : 36,
            "componentType" : 5126,
            "count" : 208,
            "type" : "VEC2"
        }
    ],
    "bufferViews" : [
        {
            "buffer" : 0,
            "byteLength" : 22008,
            "byteOffset" : 0
        },
        {
            "buffer" : 0,
            "byteLength" : 22008,
            "byteOffset" : 22008
        },
        {
            "buffer" : 0,
            "byteLength" : 14672,
            "byteOffset" : 44016
        },
        {
            "buffer" : 0,
            "byteLength" : 13896,
            "byteOffset" : 58688
        },
        {
            "buffer" : 0,
            "byteLength" : 125241,
            "byteOffset" : 72584
        },
        {
            "buffer" : 0,
            "byteLength" : 22008,
            "byteOffset" : 197828
        },
        {
            "buffer" : 0,
            "byteLength" : 22008,
            "byteOffset" : 219836
        },
        {
            "buffer" : 0,
            "byteLength" : 14672,
            "byteOffset" : 241844
        },
        {
            "buffer" : 0,
            "byteLength" : 13896,
            "byteOffset" : 256516
        },
        {
            "buffer" : 0,
            "byteLength" : 2496,
            "byteOffset" : 270412
        },
        {
            "buffer" : 0,
            "byteLength" : 2496,
            "byteOffset" : 272908
        },
        {
            "buffer" : 0,
            "byteLength" : 1664,
            "byteOffset" : 275404
        },
        {
            "buffer" : 0,
            "byteLength" : 1320,
            "byteOffset" : 277068
        },
        {
            "buffer" : 0,
            "byteLength" : 2496,
            "byteOffset" : 278388
        },
        {
            "buffer" : 0,
            "byteLength" : 2496,
            "byteOffset" : 280884
        },
        {
            "buffer" : 0,
            "byteLength" : 1664,
            "byteOffset" : 283380
        },
        {
            "buffer" : 0,
            "byteLength" : 1320,
            "byteOffset" : 285044
        },
        {
            "buffer" : 0,
            "byteLength" : 2496,
            "byteOffset" : 286364
        },
        {
            "buffer" : 0,
            "byteLength" : 2496,
            "byteOffset" : 288860
        },
        {
            "buffer" : 0,
            "byteLength" : 1664,
            "byteOffset" : 291356
        },
        {
            "buffer" : 0,
            "byteLength" : 2496,
            "byteOffset" : 293020
        },
        {
            "buffer" : 0,
            "byteLength" : 2496,
            "byteOffset" : 295516
        },
        {
            "buffer" : 0,
            "byteLength" : 1664,
            "byteOffset" : 298012
        },
        {
            "buffer" : 0,
            "byteLength" : 2496,
            "byteOffset" : 299676
        },
        {
            "buffer" : 0,
            "byteLength" : 2496,
            "byteOffset" : 302172
        },
        {
            "buffer" : 0,
            "byteLength" : 1664,
            "byteOffset" : 304668
        },
        {
            "buffer" : 0,
            "byteLength" : 1320,
            "byteOffset" : 306332
        },
        {
            "buffer" : 0,
            "byteLength" : 2496,
            "byteOffset" : 307652
        },
        {
            "buffer" : 0,
            "byteLength" : 2496,
            "byteOffset" : 310148
        },
        {
            "buffer" : 0,
            "byteLength" : 1664,
            "byteOffset" : 312644
        },
        {
            "buffer" : 0,
            "byteLength" : 1320,
            "byteOffset" : 314308
        },
        {
            "buffer" : 0,
            "byteLength" : 2496,
            "byteOffset" : 315628
        },
        {
            "buffer" : 0,
            "byteLength" : 2496,
            "byteOffset" : 318124
        },
        {
            "buffer" : 0,
            "byteLength" : 1664,
            "byteOffset" : 320620
        },
        {
            "buffer" : 0,
            "byteLength" : 2496,
            "byteOffset" : 322284
        },
        {
            "buffer" : 0,
            "byteLength" : 2496,
            "byteOffset" : 324780
        },
        {
            "buffer" : 0,
            "byteLength" : 1664,
            "byteOffset" : 327276
        }
    ],
    "samplers" : [
        {
            "magFilter" : 9728,
            "minFilter" : 9984
        }
    ],
    "buffers" : [
        {
            "byteLength" : 328940,
            "uri" : "data:application/octet-stream;base64,"
        }
    ]
}
