{
    "asset" : {
        "generator" : "Khronos glTF Blender I/O v3.2.43",
        "version" : "2.0"
    },
    "extensionsUsed" : [
        "KHR_materials_unlit"
    ],
    "scene" : 0,
    "scenes" : [
        {
            "name" : "Scene",
            "nodes" : [
                0,
                1,
                2,
                3,
                4,
                5
            ]
        }
    ],
    "nodes" : [
        {
            "mesh" : 0,
            "name" : "body"
        },
        {
            "mesh" : 1,
            "name" : "front-left-wheel",
            "rotation" : [
                0,
                0,
                -0.7071067094802856,
                0.7071068286895752
            ],
            "translation" : [
                0.8220720291137695,
                -0.3199999928474426,
                1.214338779449463
            ]
        },
        {
            "mesh" : 2,
            "name" : "rear-left-wheel",
            "rotation" : [
                0,
                0,
                -0.7071068286895752,
                0.7071068286895752
            ],
            "translation" : [
                0.8220720291137695,
                -0.3199999928474426,
                -1.227607250213623
            ]
        },
        {
            "mesh" : 3,
            "name" : "rear-right-wheel",
            "rotation" : [
                0,
                0,
                -0.7071068286895752,
                0.7071068286895752
            ],
            "translation" : [
                -0.8220720291137695,
                -0.3200000524520874,
                -1.2276071310043335
            ]
        },
        {
            "mesh" : 4,
            "name" : "front-right-wheel",
            "rotation" : [
                0,
                0,
                -0.7071067094802856,
                0.7071068286895752
            ],
            "translation" : [
                -0.8220720291137695,
                -0.3200000524520874,
                1.214338779449463
            ]
        },
        {
            "mesh" : 5,
            "name" : "headlights",
            "scale" : [
                0.8445500135421753,
                0.6324599981307983,
                2.1575000286102295
            ]
        }
    ],
    "materials" : [
        {
            "doubleSided" : true,
            "name" : "fc3s",
            "pbrMetallicRoughness" : {
                "baseColorTexture" : {
                    "index" : 0
                },
                "metallicFactor" : 0.24400000274181366,
                "roughnessFactor" : 0
            }
        },
        {
            "extensions" : {
                "KHR_materials_unlit" : {}
            },
            "name" : "OH_Outline_Material",
            "pbrMetallicRoughness" : {
                "baseColorFactor" : [
                    0,
                    0,
                    0,
                    1
                ],
                "metallicFactor" : 0,
                "roughnessFactor" : 0.9
            }
        }
    ],
    "meshes" : [
        {
            "name" : "Cube.001",
            "primitives" : [
                {
                    "attributes" : {
                        "POSITION" : 0,
                        "NORMAL" : 1,
                        "TEXCOORD_0" : 2
                    },
                    "indices" : 3,
                    "material" : 0
                },
                {
                    "attributes" : {
                        "POSITION" : 4,
                        "NORMAL" : 5,
                        "TEXCOORD_0" : 6
                    },
                    "indices" : 7,
                    "material" : 1
                }
            ]
        },
        {
            "name" : "Cylinder",
            "primitives" : [
                {
                    "attributes" : {
                        "POSITION" : 8,
                        "NORMAL" : 9,
                        "TEXCOORD_0" : 10
                    },
                    "indices" : 11,
                    "material" : 0
                },
                {
                    "attributes" : {
                        "POSITION" : 12,
                        "NORMAL" : 13,
                        "TEXCOORD_0" : 14
                    },
                    "indices" : 15,
                    "material" : 1
                }
            ]
        },
        {
            "name" : "Cylinder.001",
            "primitives" : [
                {
                    "attributes" : {
                        "POSITION" : 16,
                        "NORMAL" : 17,
                        "TEXCOORD_0" : 18
                    },
                    "indices" : 11,
                    "material" : 0
                },
                {
                    "attributes" : {
                        "POSITION" : 19,
                        "NORMAL" : 20,
                        "TEXCOORD_0" : 21
                    },
                    "indices" : 15,
                    "material" : 1
                }
            ]
        },
        {
            "name" : "Cylinder.002",
            "primitives" : [
                {
                    "attributes" : {
                        "POSITION" : 22,
                        "NORMAL" : 23,
                        "TEXCOORD_0" : 24
                    },
                    "indices" : 25,
                    "material" : 0
                },
                {
                    "attributes" : {
                        "POSITION" : 26,
                        "NORMAL" : 27,
                        "TEXCOORD_0" : 28
                    },
                    "indices" : 29,
                    "material" : 1
                }
            ]
        },
        {
            "name" : "Cylinder.003",
            "primitives" : [
                {
                    "attributes" : {
                        "POSITION" : 30,
                        "NORMAL" : 31,
                        "TEXCOORD_0" : 32
                    },
                    "indices" : 25,
                    "material" : 0
                },
                {
                    "attributes" : {
                        "POSITION" : 33,
                        "NORMAL" : 34,
                        "TEXCOORD_0" : 35
                    },
                    "indices" : 29,
                    "material" : 1
                }
            ]
        },
        {
            "name" : "Cube.002",
            "primitives" : [
                {
                    "attributes" : {
                        "POSITION" : 36,
                        "NORMAL" : 37,
                        "TEXCOORD_0" : 38
                    },
                    "indices" : 39,
                    "material" : 0
                },
                {
                    "attributes" : {
                        "POSITION" : 40,
                        "NORMAL" : 41,
                        "TEXCOORD_0" : 42
                    },
                    "indices" : 43,
                    "material" : 1
                }
            ]
        }
    ],
    "textures" : [
        {
            "sampler" : 0,
            "source" : 0
        }
    ],
    "images" : [
        {
            "bufferView" : 4,
            "mimeType" : "image/png",
            "name" : "CrystalWhite"
        }
    ],
    "accessors" : [
        {
            "bufferView" : 0,
            "componentType" : 5126,
            "count" : 2294,
            "max" : [
                0.9451069831848145,
                0.7152037620544434,
                2.1575000286102295
            ],
            "min" : [
                -0.9451069831848145,
                -0.45828014612197876,
                -2.1744794845581055
            ],
            "type" : "VEC3"
        },
        {
            "bufferView" : 1,
            "componentType" : 5126,
            "count" : 2294,
            "type" : "VEC3"
        },
        {
            "bufferView" : 2,
            "componentType" : 5126,
            "count" : 2294,
            "type" : "VEC2"
        },
        {
            "bufferView" : 3,
            "componentType" : 5123,
            "count" : 7578,
            "type" : "SCALAR"
        },
        {
            "bufferView" : 5,
            "componentType" : 5126,
            "count" : 2297,
            "max" : [
                0.9617007374763489,
                0.7352021336555481,
                2.1765172481536865
            ],
            "min" : [
                -0.9617007374763489,
                -0.47827816009521484,
                -2.19386887550354
            ],
            "type" : "VEC3"
        },
        {
            "bufferView" : 6,
            "componentType" : 5126,
            "count" : 2297,
            "type" : "VEC3"
        },
        {
            "bufferView" : 7,
            "componentType" : 5126,
            "count" : 2297,
            "type" : "VEC2"
        },
        {
            "bufferView" : 8,
            "componentType" : 5123,
            "count" : 7578,
            "type" : "SCALAR"
        },
        {
            "bufferView" : 9,
            "componentType" : 5126,
            "count" : 216,
            "max" : [
                0.328925758600235,
                0.04966568946838379,
                0.33399999141693115
            ],
            "min" : [
                -0.3289257884025574,
                -0.19146239757537842,
                -0.33399999141693115
            ],
            "type" : "VEC3"
        },
        {
            "bufferView" : 10,
            "componentType" : 5126,
            "count" : 216,
            "type" : "VEC3"
        },
        {
            "bufferView" : 11,
            "componentType" : 5126,
            "count" : 216,
            "type" : "VEC2"
        },
        {
            "bufferView" : 12,
            "componentType" : 5123,
            "count" : 636,
            "type" : "SCALAR"
        },
        {
            "bufferView" : 13,
            "componentType" : 5126,
            "count" : 216,
            "max" : [
                0.34362906217575073,
                0.0680786594748497,
                0.34893012046813965
            ],
            "min" : [
                -0.3436290919780731,
                -0.20486301183700562,
                -0.34893012046813965
            ],
            "type" : "VEC3"
        },
        {
            "bufferView" : 14,
            "componentType" : 5126,
            "count" : 216,
            "type" : "VEC3"
        },
        {
            "bufferView" : 15,
            "componentType" : 5126,
            "count" : 216,
            "type" : "VEC2"
        },
        {
            "bufferView" : 16,
            "componentType" : 5123,
            "count" : 636,
            "type" : "SCALAR"
        },
        {
            "bufferView" : 17,
            "componentType" : 5126,
            "count" : 216,
            "max" : [
                0.328925758600235,
                0.04966568946838379,
                0.33399999141693115
            ],
            "min" : [
                -0.3289257884025574,
                -0.19146239757537842,
                -0.33399999141693115
            ],
            "type" : "VEC3"
        },
        {
            "bufferView" : 18,
            "componentType" : 5126,
            "count" : 216,
            "type" : "VEC3"
        },
        {
            "bufferView" : 19,
            "componentType" : 5126,
            "count" : 216,
            "type" : "VEC2"
        },
        {
            "bufferView" : 20,
            "componentType" : 5126,
            "count" : 216,
            "max" : [
                0.34362906217575073,
                0.0680786594748497,
                0.34893012046813965
            ],
            "min" : [
                -0.3436290919780731,
                -0.20486301183700562,
                -0.34893012046813965
            ],
            "type" : "VEC3"
        },
        {
            "bufferView" : 21,
            "componentType" : 5126,
            "count" : 216,
            "type" : "VEC3"
        },
        {
            "bufferView" : 22,
            "componentType" : 5126,
            "count" : 216,
            "type" : "VEC2"
        },
        {
            "bufferView" : 23,
            "componentType" : 5126,
            "count" : 216,
            "max" : [
                0.32892581820487976,
                0.19146239757537842,
                0.33399996161460876
            ],
            "min" : [
                -0.32892581820487976,
                -0.04966568946838379,
                -0.33399996161460876
            ],
            "type" : "VEC3"
        },
        {
            "bufferView" : 24,
            "componentType" : 5126,
            "count" : 216,
            "type" : "VEC3"
        },
        {
            "bufferView" : 25,
            "componentType" : 5126,
            "count" : 216,
            "type" : "VEC2"
        },
        {
            "bufferView" : 26,
            "componentType" : 5123,
            "count" : 636,
            "type" : "SCALAR"
        },
        {
            "bufferView" : 27,
            "componentType" : 5126,
            "count" : 216,
            "max" : [
                0.3436291217803955,
                0.20486301183700562,
                0.34893009066581726
            ],
            "min" : [
                -0.3436290919780731,
                -0.0680786594748497,
                -0.34893009066581726
            ],
            "type" : "VEC3"
        },
        {
            "bufferView" : 28,
            "componentType" : 5126,
            "count" : 216,
            "type" : "VEC3"
        },
        {
            "bufferView" : 29,
            "componentType" : 5126,
            "count" : 216,
            "type" : "VEC2"
        },
        {
            "bufferView" : 30,
            "componentType" : 5123,
            "count" : 636,
            "type" : "SCALAR"
        },
        {
            "bufferView" : 31,
            "componentType" : 5126,
            "count" : 216,
            "max" : [
                0.32892581820487976,
                0.19146239757537842,
                0.33399996161460876
            ],
            "min" : [
                -0.32892581820487976,
                -0.04966568946838379,
                -0.33399996161460876
            ],
            "type" : "VEC3"
        },
        {
            "bufferView" : 32,
            "componentType" : 5126,
            "count" : 216,
            "type" : "VEC3"
        },
        {
            "bufferView" : 33,
            "componentType" : 5126,
            "count" : 216,
            "type" : "VEC2"
        },
        {
            "bufferView" : 34,
            "componentType" : 5126,
            "count" : 216,
            "max" : [
                0.3436291217803955,
                0.20486301183700562,
                0.34893009066581726
            ],
            "min" : [
                -0.3436290919780731,
                -0.0680786594748497,
                -0.34893009066581726
            ],
            "type" : "VEC3"
        },
        {
            "bufferView" : 35,
            "componentType" : 5126,
            "count" : 216,
            "type" : "VEC3"
        },
        {
            "bufferView" : 36,
            "componentType" : 5126,
            "count" : 216,
            "type" : "VEC2"
        },
        {
            "bufferView" : 37,
            "componentType" : 5126,
            "count" : 76,
            "max" : [
                0.8497799634933472,
                0.4051200747489929,
                0.9245864152908325
            ],
            "min" : [
                -0.8497799634933472,
                0.019542913883924484,
                0.7988865375518799
            ],
            "type" : "VEC3"
        },
        {
            "bufferView" : 38,
            "componentType" : 5126,
            "count" : 76,
            "type" : "VEC3"
        },
        {
            "bufferView" : 39,
            "componentType" : 5126,
            "count" : 76,
            "type" : "VEC2"
        },
        {
            "bufferView" : 40,
            "componentType" : 5123,
            "count" : 216,
            "type" : "SCALAR"
        },
        {
            "bufferView" : 41,
            "componentType" : 5126,
            "count" : 76,
            "max" : [
                0.865643322467804,
                0.421953022480011,
                0.9429954290390015
            ],
            "min" : [
                -0.865643322467804,
                0.019542913883924484,
                0.7811791896820068
            ],
            "type" : "VEC3"
        },
        {
            "bufferView" : 42,
            "componentType" : 5126,
            "count" : 76,
            "type" : "VEC3"
        },
        {
            "bufferView" : 43,
            "componentType" : 5126,
            "count" : 76,
            "type" : "VEC2"
        },
        {
            "bufferView" : 44,
            "componentType" : 5123,
            "count" : 216,
            "type" : "SCALAR"
        }
    ],
    "bufferViews" : [
        {
            "buffer" : 0,
            "byteLength" : 27528,
            "byteOffset" : 0
        },
        {
            "buffer" : 0,
            "byteLength" : 27528,
            "byteOffset" : 27528
        },
        {
            "buffer" : 0,
            "byteLength" : 18352,
            "byteOffset" : 55056
        },
        {
            "buffer" : 0,
            "byteLength" : 15156,
            "byteOffset" : 73408
        },
        {
            "buffer" : 0,
            "byteLength" : 143163,
            "byteOffset" : 88564
        },
        {
            "buffer" : 0,
            "byteLength" : 27564,
            "byteOffset" : 231728
        },
        {
            "buffer" : 0,
            "byteLength" : 27564,
            "byteOffset" : 259292
        },
        {
            "buffer" : 0,
            "byteLength" : 18376,
            "byteOffset" : 286856
        },
        {
            "buffer" : 0,
            "byteLength" : 15156,
            "byteOffset" : 305232
        },
        {
            "buffer" : 0,
            "byteLength" : 2592,
            "byteOffset" : 320388
        },
        {
            "buffer" : 0,
            "byteLength" : 2592,
            "byteOffset" : 322980
        },
        {
            "buffer" : 0,
            "byteLength" : 1728,
            "byteOffset" : 325572
        },
        {
            "buffer" : 0,
            "byteLength" : 1272,
            "byteOffset" : 327300
        },
        {
            "buffer" : 0,
            "byteLength" : 2592,
            "byteOffset" : 328572
        },
        {
            "buffer" : 0,
            "byteLength" : 2592,
            "byteOffset" : 331164
        },
        {
            "buffer" : 0,
            "byteLength" : 1728,
            "byteOffset" : 333756
        },
        {
            "buffer" : 0,
            "byteLength" : 1272,
            "byteOffset" : 335484
        },
        {
            "buffer" : 0,
            "byteLength" : 2592,
            "byteOffset" : 336756
        },
        {
            "buffer" : 0,
            "byteLength" : 2592,
            "byteOffset" : 339348
        },
        {
            "buffer" : 0,
            "byteLength" : 1728,
            "byteOffset" : 341940
        },
        {
            "buffer" : 0,
            "byteLength" : 2592,
            "byteOffset" : 343668
        },
        {
            "buffer" : 0,
            "byteLength" : 2592,
            "byteOffset" : 346260
        },
        {
            "buffer" : 0,
            "byteLength" : 1728,
            "byteOffset" : 348852
        },
        {
            "buffer" : 0,
            "byteLength" : 2592,
            "byteOffset" : 350580
        },
        {
            "buffer" : 0,
            "byteLength" : 2592,
            "byteOffset" : 353172
        },
        {
            "buffer" : 0,
            "byteLength" : 1728,
            "byteOffset" : 355764
        },
        {
            "buffer" : 0,
            "byteLength" : 1272,
            "byteOffset" : 357492
        },
        {
            "buffer" : 0,
            "byteLength" : 2592,
            "byteOffset" : 358764
        },
        {
            "buffer" : 0,
            "byteLength" : 2592,
            "byteOffset" : 361356
        },
        {
            "buffer" : 0,
            "byteLength" : 1728,
            "byteOffset" : 363948
        },
        {
            "buffer" : 0,
            "byteLength" : 1272,
            "byteOffset" : 365676
        },
        {
            "buffer" : 0,
            "byteLength" : 2592,
            "byteOffset" : 366948
        },
        {
            "buffer" : 0,
            "byteLength" : 2592,
            "byteOffset" : 369540
        },
        {
            "buffer" : 0,
            "byteLength" : 1728,
            "byteOffset" : 372132
        },
        {
            "buffer" : 0,
            "byteLength" : 2592,
            "byteOffset" : 373860
        },
        {
            "buffer" : 0,
            "byteLength" : 2592,
            "byteOffset" : 376452
        },
        {
            "buffer" : 0,
            "byteLength" : 1728,
            "byteOffset" : 379044
        },
        {
            "buffer" : 0,
            "byteLength" : 912,
            "byteOffset" : 380772
        },
        {
            "buffer" : 0,
            "byteLength" : 912,
            "byteOffset" : 381684
        },
        {
            "buffer" : 0,
            "byteLength" : 608,
            "byteOffset" : 382596
        },
        {
            "buffer" : 0,
            "byteLength" : 432,
            "byteOffset" : 383204
        },
        {
            "buffer" : 0,
            "byteLength" : 912,
            "byteOffset" : 383636
        },
        {
            "buffer" : 0,
            "byteLength" : 912,
            "byteOffset" : 384548
        },
        {
            "buffer" : 0,
            "byteLength" : 608,
            "byteOffset" : 385460
        },
        {
            "buffer" : 0,
            "byteLength" : 432,
            "byteOffset" : 386068
        }
    ],
    "samplers" : [
        {
            "magFilter" : 9728,
            "minFilter" : 9984
        }
    ],
    "buffers" : [
        {
            "byteLength" : 386500,
            "uri" : "data:application/octet-stream;base64,"
        }
    ]
}
